# xmcd CD database file
#
# Track frame offsets:
#	150
#	17291
#	32257
#	46557
#	68646
#	85024
#
# Disc length: 1389 seconds
#
# Revision: 0
# Processed by: cddbd v1.5.1PL0 Copyright (c) Steve Scherf et al.
# Submitted via: CDex 1.50
#
DISCID=2d056b06
DTITLE=Johnny Chester - Johnny Chester Vs The Distance
DYEAR=2005
DGENRE=Country
TTITLE0=Get A Little Dirt On Your Hands (Duet mix with The Distance)
TTITLE1=This Land
TTITLE2=Jessica
TTITLE3=My Life
TTITLE4=The Way Old Friends Do
TTITLE5=Get A Little Dirt On Your Hands
EXTD=YEAR: 2005
EXTT0=
EXTT1=
EXTT2=
EXTT3=
EXTT4=
EXTT5=
PLAYORDER=
